<?xml version="1.0" encoding="utf-8"?><svg xmlns="http://www.w3.org/2000/svg" xmlns:xlink="http://www.w3.org/1999/xlink"><symbol fill="none" viewBox="0 0 12 8" id="chevron" xmlns="http://www.w3.org/2000/svg"><path d="M1.5 1.75L6 6.25l4.5-4.5" stroke="#0050EF" stroke-width="2" stroke-linecap="round" stroke-linejoin="round"/></symbol><symbol fill="none" viewBox="0 0 194 48" id="logo" xmlns="http://www.w3.org/2000/svg"><path d="M79.039 37.593c-2.048 0-4.033-.29-5.955-.872-1.896-.582-3.4-1.353-4.513-2.314l1.707-3.83c1.087.86 2.414 1.567 3.982 2.123 1.593.531 3.186.797 4.779.797 1.972 0 3.439-.316 4.4-.948.986-.633 1.479-1.467 1.479-2.503 0-.759-.279-1.378-.835-1.859-.53-.506-1.213-.898-2.048-1.176-.834-.278-1.972-.594-3.413-.948-2.023-.48-3.666-.96-4.93-1.441a8.348 8.348 0 01-3.224-2.238c-.886-1.036-1.328-2.427-1.328-4.172 0-1.466.392-2.793 1.176-3.982.809-1.213 2.01-2.174 3.603-2.882 1.618-.708 3.59-1.062 5.916-1.062 1.619 0 3.212.202 4.78.607 1.567.404 2.92.986 4.057 1.744l-1.555 3.83a15.339 15.339 0 00-3.64-1.554c-1.265-.354-2.491-.531-3.68-.531-1.947 0-3.4.329-4.361.986-.936.657-1.403 1.53-1.403 2.617 0 .758.265 1.378.796 1.858.556.48 1.252.86 2.086 1.138.834.278 1.972.594 3.413.948 1.973.455 3.59.936 4.855 1.441a7.99 7.99 0 013.224 2.238c.91 1.011 1.365 2.377 1.365 4.096 0 1.467-.404 2.794-1.214 3.982-.783 1.189-1.984 2.137-3.603 2.845-1.618.708-3.59 1.062-5.916 1.062zM105.432 16.733c1.972 0 3.73.43 5.272 1.29a9.263 9.263 0 013.679 3.64c.885 1.568 1.327 3.376 1.327 5.424 0 2.048-.442 3.869-1.327 5.462a9.263 9.263 0 01-3.679 3.64c-1.542.86-3.3 1.29-5.272 1.29-2.731 0-4.892-.91-6.485-2.73v9.822h-4.741v-27.61h4.513v2.655a7.363 7.363 0 012.883-2.162c1.163-.48 2.44-.72 3.83-.72zm-.531 16.688c1.745 0 3.173-.582 4.286-1.745 1.138-1.163 1.707-2.692 1.707-4.589 0-1.896-.569-3.426-1.707-4.589-1.113-1.163-2.541-1.745-4.286-1.745-1.138 0-2.162.266-3.072.797-.91.506-1.631 1.239-2.162 2.2-.53.96-.796 2.073-.796 3.337 0 1.264.265 2.377.796 3.338a5.752 5.752 0 002.162 2.237c.91.506 1.934.759 3.072.759zM127.684 16.733c2.984 0 5.259.72 6.827 2.162 1.593 1.416 2.389 3.565 2.389 6.448v11.87h-4.475v-2.465c-.582.885-1.416 1.568-2.503 2.048-1.062.456-2.352.683-3.869.683-1.517 0-2.844-.253-3.982-.758-1.138-.531-2.023-1.252-2.655-2.162-.607-.936-.91-1.985-.91-3.148 0-1.82.67-3.274 2.01-4.362 1.365-1.112 3.502-1.668 6.41-1.668h5.233v-.304c0-1.416-.429-2.503-1.289-3.262-.834-.758-2.086-1.137-3.755-1.137-1.138 0-2.263.177-3.375.53-1.087.355-2.01.848-2.769 1.48l-1.858-3.452c1.062-.809 2.339-1.428 3.83-1.858a17.046 17.046 0 014.741-.645zm-.645 17.295c1.189 0 2.238-.266 3.148-.797a4.5 4.5 0 001.972-2.351v-2.352h-4.892c-2.731 0-4.096.898-4.096 2.693 0 .86.341 1.543 1.024 2.048.683.506 1.631.759 2.844.759zM152.462 37.48c-2.099 0-3.983-.443-5.651-1.328-1.669-.885-2.971-2.112-3.907-3.68-.935-1.592-1.403-3.387-1.403-5.385 0-1.997.468-3.78 1.403-5.347.936-1.568 2.225-2.794 3.869-3.68 1.668-.884 3.565-1.327 5.689-1.327 1.997 0 3.742.405 5.234 1.214 1.517.809 2.654 1.972 3.413 3.49l-3.641 2.123c-.582-.935-1.315-1.63-2.2-2.086-.859-.48-1.808-.72-2.844-.72-1.77 0-3.237.581-4.4 1.744-1.163 1.138-1.744 2.668-1.744 4.59 0 1.92.569 3.463 1.706 4.626 1.163 1.138 2.643 1.707 4.438 1.707 1.036 0 1.985-.228 2.844-.683.885-.48 1.618-1.188 2.2-2.124l3.641 2.124c-.784 1.517-1.934 2.693-3.451 3.527-1.492.81-3.224 1.214-5.196 1.214zM183.95 27.201c0 .329-.025.796-.076 1.403h-15.891c.278 1.492.999 2.68 2.162 3.565 1.188.86 2.654 1.29 4.399 1.29 2.225 0 4.058-.733 5.499-2.2l2.542 2.92c-.911 1.088-2.061 1.91-3.452 2.466-1.39.556-2.958.834-4.703.834-2.225 0-4.184-.442-5.878-1.327s-3.009-2.112-3.945-3.68c-.91-1.592-1.365-3.387-1.365-5.385 0-1.972.442-3.742 1.327-5.31a9.651 9.651 0 013.755-3.716c1.593-.885 3.388-1.328 5.386-1.328 1.972 0 3.729.443 5.272 1.328a8.953 8.953 0 013.64 3.679c.885 1.567 1.328 3.388 1.328 5.461zm-10.24-6.675c-1.517 0-2.807.455-3.869 1.365-1.036.885-1.669 2.074-1.896 3.565h11.492c-.203-1.466-.822-2.654-1.859-3.565-1.036-.91-2.326-1.365-3.868-1.365zM190.021 37.48c-.86 0-1.593-.292-2.2-.873-.607-.607-.91-1.366-.91-2.276 0-.935.291-1.694.872-2.275.607-.582 1.353-.873 2.238-.873s1.618.291 2.2.873c.606.581.91 1.34.91 2.275 0 .91-.304 1.669-.91 2.276-.607.581-1.341.872-2.2.872z" fill="#fff"/><circle cx="11.077" cy="11.077" r="11.077" fill="#fff"/><circle cx="36.923" cy="11.077" r="11.077" fill="#fff"/><circle cx="11.077" cy="36.923" r="11.077" fill="#fff"/><circle cx="36.923" cy="36.923" r="11.077" fill="#fff"/></symbol><symbol fill="none" viewBox="0 0 22 22" id="mail" xmlns="http://www.w3.org/2000/svg"><path d="M3.667 3.667h14.666c1.009 0 1.834.825 1.834 1.833v11a1.839 1.839 0 01-1.834 1.833H3.667A1.839 1.839 0 011.833 16.5v-11c0-1.008.825-1.833 1.834-1.833z" stroke="#888" stroke-width="1.5" stroke-linecap="round" stroke-linejoin="round"/><path d="M20.167 5.5L11 11.917 1.833 5.5" stroke="#888" stroke-width="1.5" stroke-linecap="round" stroke-linejoin="round"/></symbol><symbol fill="none" viewBox="0 0 20 20" id="person" xmlns="http://www.w3.org/2000/svg"><path d="M16.667 17.5v-1.667a3.333 3.333 0 00-3.334-3.333H6.667a3.333 3.333 0 00-3.334 3.333V17.5M10 9.167A3.333 3.333 0 1010 2.5a3.333 3.333 0 000 6.667z" stroke="#888" stroke-width="2" stroke-linecap="round" stroke-linejoin="round"/></symbol><symbol fill="none" viewBox="0 0 22 22" id="phone" xmlns="http://www.w3.org/2000/svg"><path d="M19.167 15.013v2.449a1.632 1.632 0 01-1.78 1.632 16.15 16.15 0 01-7.042-2.506 15.916 15.916 0 01-4.897-4.898 16.158 16.158 0 01-2.505-7.077 1.633 1.633 0 011.624-1.78h2.448a1.632 1.632 0 011.632 1.404c.103.784.295 1.554.571 2.294a1.633 1.633 0 01-.367 1.723L7.815 9.29a13.06 13.06 0 004.896 4.898l1.037-1.037a1.633 1.633 0 011.722-.367c.74.276 1.51.468 2.293.571a1.632 1.632 0 011.404 1.658z" stroke="#888" stroke-width="1.5" stroke-linecap="round" stroke-linejoin="round"/></symbol><symbol fill="none" viewBox="0 0 16 14" id="telegram" xmlns="http://www.w3.org/2000/svg"><path d="M6.386 8.988l-.248 3.49c.355 0 .509-.152.693-.335l1.664-1.59 3.45 2.525c.632.352 1.077.167 1.248-.582l2.264-10.608c.201-.935-.338-1.3-.954-1.071L1.196 5.91c-.908.352-.894.859-.154 1.088l3.402 1.058 7.902-4.944c.372-.247.71-.11.432.136l-6.392 5.74z" fill="#fff"/></symbol><symbol fill="none" viewBox="0 0 17 14" id="twitter" xmlns="http://www.w3.org/2000/svg"><path fill-rule="evenodd" clip-rule="evenodd" d="M16.467 2.285a6.41 6.41 0 01-1.88.514A3.273 3.273 0 0016.03.989a6.62 6.62 0 01-2.084.794A3.273 3.273 0 008.37 4.771a9.323 9.323 0 01-6.755-3.42 3.274 3.274 0 001.016 4.372 3.274 3.274 0 01-1.483-.409v.04a3.275 3.275 0 002.627 3.21 3.25 3.25 0 01-1.483.06 3.283 3.283 0 003.06 2.275A6.59 6.59 0 01.5 12.254a9.274 9.274 0 005.02 1.47c6.026 0 9.318-4.99 9.318-9.315 0-.14-.006-.286-.012-.426a6.67 6.67 0 001.64-1.698z" fill="#fff"/></symbol><symbol fill="none" viewBox="0 0 18 11" id="vk" xmlns="http://www.w3.org/2000/svg"><path d="M17.657 9.667a1.336 1.336 0 00-.06-.122c-.303-.586-.883-1.306-1.74-2.159l-.018-.02-.009-.01-.009-.009h-.009c-.389-.397-.635-.664-.738-.801-.188-.26-.23-.524-.128-.791.073-.202.347-.629.82-1.28.25-.345.447-.622.593-.83 1.05-1.498 1.506-2.455 1.366-2.872l-.054-.097c-.036-.06-.13-.113-.282-.162-.152-.048-.347-.057-.584-.024l-2.624.02C14.14.492 14.078.494 14 .513l-.118.03-.046.024-.036.03a.418.418 0 00-.1.102.682.682 0 00-.091.171 16.48 16.48 0 01-.976 2.198c-.224.404-.43.754-.62 1.05a5.022 5.022 0 01-.473.654c-.127.14-.243.253-.346.337-.104.085-.182.12-.237.108a6.265 6.265 0 01-.155-.04.635.635 0 01-.205-.239 1.13 1.13 0 01-.105-.38 4.482 4.482 0 01-.032-.396 8.746 8.746 0 01.005-.47c.006-.201.01-.338.01-.41 0-.247.004-.516.013-.805l.022-.689c.007-.17.01-.348.01-.537 0-.19-.011-.337-.032-.445a1.6 1.6 0 00-.096-.312.518.518 0 00-.187-.235A1.014 1.014 0 009.9.128C9.577.05 9.167.008 8.67.001 7.54-.012 6.813.067 6.491.236c-.127.071-.243.17-.346.293-.11.143-.124.221-.045.234.364.059.622.199.774.42l.055.118c.042.084.085.234.127.449.043.215.07.452.082.713.03.475.03.882 0 1.22-.03.34-.059.603-.086.792a1.671 1.671 0 01-.233.674.162.162 0 01-.045.049.642.642 0 01-.246.049c-.085 0-.188-.046-.31-.137a2.252 2.252 0 01-.378-.376 5.04 5.04 0 01-.442-.67 11.971 11.971 0 01-.51-1.015l-.146-.283a25.107 25.107 0 01-.373-.796 15.928 15.928 0 01-.42-1.012.641.641 0 00-.218-.312l-.046-.03A.917.917 0 003.33.47L.833.49C.578.49.405.55.313.674L.278.734A.336.336 0 00.25.89c0 .072.018.16.055.264.364.918.76 1.804 1.189 2.657.428.853.8 1.54 1.116 2.06.316.522.638 1.014.966 1.476.328.462.545.758.651.889.106.13.19.228.25.293l.229.234c.145.156.36.344.642.562.282.218.595.433.938.645.344.211.743.384 1.199.517a3.88 3.88 0 001.33.162h1.048c.212-.02.373-.092.483-.215l.036-.05a.673.673 0 00.068-.18 1.06 1.06 0 00.032-.269c-.006-.28.014-.532.06-.756.045-.225.096-.394.154-.508a1.249 1.249 0 01.351-.43.572.572 0 01.073-.034c.146-.052.317-.002.515.151.197.153.383.342.556.567.173.225.38.477.624.757.243.28.455.488.638.625l.182.117c.121.078.28.15.474.215a.956.956 0 00.51.049l2.332-.039c.231 0 .41-.041.538-.122.127-.082.203-.171.228-.269a.81.81 0 00.004-.332 1.295 1.295 0 00-.064-.259z" fill="#fff"/></symbol><symbol fill="none" viewBox="0 0 18 13" id="youtube" xmlns="http://www.w3.org/2000/svg"><path d="M17.39 2.584c-.202-.717-.793-1.282-1.543-1.476C14.477.75 9 .75 9 .75s-5.478 0-6.847.345C1.418 1.288.812 1.867.61 2.584.25 3.894.25 6.61.25 6.61s0 2.73.36 4.026c.202.717.793 1.283 1.543 1.476C3.537 12.47 9 12.47 9 12.47s5.478 0 6.847-.345c.75-.193 1.34-.758 1.543-1.475.36-1.31.36-4.026.36-4.026s.014-2.73-.36-4.04zM7.255 9.119V4.101L11.81 6.61 7.256 9.12z" fill="#fff"/></symbol></svg>